<svg xmlns="http://www.w3.org/2000/svg" xmlns:xlink="http://www.w3.org/1999/xlink" width="500" zoomAndPan="magnify" viewBox="0 0 375 149.999998" height="200" preserveAspectRatio="xMidYMid meet" version="1.0"><defs><g/><clipPath id="2327478d38"><path d="M 33.277344 29.667969 L 96 29.667969 L 96 112 L 33.277344 112 Z M 33.277344 29.667969 " clip-rule="nonzero"/></clipPath></defs><path fill="#00bf63" d="M 127.847656 94.339844 C 123.378906 106.050781 114.179688 113.996094 110.726562 116.660156 C 109.945312 113.054688 109.238281 109.421875 108.636719 105.761719 C 107.851562 101.054688 107.226562 96.351562 106.703125 91.59375 C 106.179688 86.863281 105.867188 82.078125 105.710938 77.320312 C 105.527344 72.539062 105.628906 67.78125 105.890625 62.996094 C 105.394531 67.753906 105.03125 72.539062 104.976562 77.320312 C 104.898438 82.105469 104.976562 86.914062 105.238281 91.699219 C 105.5 96.480469 105.890625 101.292969 106.441406 106.050781 C 106.859375 109.628906 107.328125 113.210938 107.929688 116.792969 C 104.949219 114.882812 97.894531 109.527344 91.488281 97.972656 C 81.609375 80.222656 92.820312 61.191406 97.03125 54.816406 C 101.5 48.019531 109.65625 37.535156 109.65625 37.535156 C 109.65625 37.535156 111.355469 44.203125 121.628906 57.167969 C 131.875 70.132812 132.34375 82.550781 127.847656 94.339844 Z M 126.933594 102.023438 C 122.515625 106.546875 120.816406 112.453125 120.320312 114.621094 C 122.152344 114.230469 123.953125 113.761719 125.757812 113.289062 C 128.085938 112.664062 130.386719 111.957031 132.660156 111.171875 C 134.960938 110.414062 137.207031 109.550781 139.429688 108.609375 C 141.652344 107.695312 143.820312 106.625 145.964844 105.5 C 143.871094 106.730469 141.753906 107.90625 139.585938 108.949219 C 137.390625 109.996094 135.195312 110.988281 132.921875 111.878906 C 130.671875 112.765625 128.371094 113.601562 126.070312 114.363281 C 124.347656 114.9375 122.59375 115.460938 120.816406 115.957031 C 122.308594 116.921875 126.28125 119.015625 132.945312 119.539062 C 143.195312 120.320312 149.546875 111.144531 151.585938 107.851562 C 153.753906 104.351562 156.839844 98.390625 156.839844 98.390625 C 156.839844 98.390625 153.414062 99.015625 145.285156 97.058594 C 137.179688 95.042969 131.378906 97.476562 126.933594 102.023438 Z M 126.933594 102.023438 " fill-opacity="1" fill-rule="nonzero"/><g clip-path="url(#2327478d38)"><path fill="#ffffff" d="M 87.828125 100.636719 C 85.582031 101.316406 83.253906 101.734375 80.875 101.996094 C 80.300781 102.050781 79.726562 102.179688 79.203125 102.390625 C 73.609375 104.871094 67.703125 105.109375 61.820312 104.480469 C 57.664062 104.035156 53.558594 103.015625 49.484375 101.996094 C 47.835938 101.578125 46.371094 100.507812 44.804688 99.777344 C 42.972656 98.9375 41.117188 98.078125 39.234375 97.398438 C 37.875 96.898438 36.933594 96.140625 36.28125 94.835938 C 33.457031 88.953125 33.277344 82.8125 34.425781 76.539062 C 35.785156 69.035156 38.921875 62.1875 42.136719 55.339844 C 44.28125 50.816406 46.214844 46.164062 48.253906 41.5625 C 50.582031 36.28125 54.996094 33.09375 59.652344 30.140625 C 60.410156 29.667969 61.742188 29.722656 62.65625 30.007812 C 65.6875 30.949219 68.460938 32.464844 70.65625 34.792969 C 72.484375 36.726562 72.511719 38.007812 71.046875 40.175781 C 70.160156 41.484375 69.296875 42.84375 68.511719 44.230469 C 67.859375 45.351562 66.945312 45.902344 65.6875 45.925781 C 63.570312 46.007812 61.429688 46.136719 59.3125 46.1875 C 55.652344 46.265625 53.976562 47.496094 52.722656 51.15625 C 53.558594 50.242188 54.34375 49.351562 55.128906 48.488281 C 55.257812 48.566406 55.390625 48.644531 55.546875 48.75 C 54.449219 51.863281 55.652344 54.839844 55.992188 57.847656 C 56.933594 65.898438 56.4375 73.792969 53.21875 81.347656 C 51.914062 84.40625 50.214844 87.175781 47.417969 89.136719 C 50.371094 88.246094 52.539062 86.3125 54.109375 83.777344 C 57.558594 78.210938 62.917969 75.726562 69.007812 74.472656 C 73.949219 73.453125 78.707031 74.601562 83.359375 76.277344 C 83.410156 76.300781 83.492188 76.328125 83.542969 76.355469 C 83.410156 77.21875 83.308594 78.078125 83.230469 78.96875 C 79.753906 81.949219 75.753906 83.804688 71.386719 85.085938 C 73.871094 85.058594 76.222656 84.484375 78.339844 83.28125 C 79.960938 82.339844 81.554688 81.347656 83.125 80.328125 C 82.757812 86.730469 83.882812 93.527344 87.59375 100.167969 C 87.644531 100.324219 87.75 100.457031 87.828125 100.636719 Z M 88.484375 101.761719 C 86.574219 102.519531 84.535156 103.09375 82.417969 103.511719 C 86.628906 106.9375 91.042969 109.734375 95.777344 111.957031 C 93.398438 109.238281 90.914062 105.890625 88.484375 101.761719 Z M 88.484375 101.761719 " fill-opacity="1" fill-rule="nonzero"/></g><g fill="#ffffff" fill-opacity="1"><g transform="translate(165.938811, 80.164258)"><g><path d="M 7.71875 -17.96875 L 7.71875 -12.140625 L 17.9375 -12.140625 L 17.9375 -8.03125 L 7.71875 -8.03125 L 7.71875 0 L 2.609375 0 L 2.609375 -22.0625 L 19.28125 -22.0625 L 19.28125 -17.96875 Z M 7.71875 -17.96875 "/></g></g></g><g fill="#ffffff" fill-opacity="1"><g transform="translate(187.959651, 80.164258)"><g><path d="M 2.609375 -22.0625 L 7.71875 -22.0625 L 7.71875 0 L 2.609375 0 Z M 2.609375 -22.0625 "/></g></g></g><g fill="#ffffff" fill-opacity="1"><g transform="translate(200.183374, 80.164258)"><g><path d="M 7.1875 -17.90625 L 0.125 -17.90625 L 0.125 -22.0625 L 19.34375 -22.0625 L 19.34375 -17.90625 L 12.296875 -17.90625 L 12.296875 0 L 7.1875 0 Z M 7.1875 -17.90625 "/></g></g></g><g fill="#ffffff" fill-opacity="1"><g transform="translate(221.542673, 80.164258)"><g/></g></g><g fill="#ffffff" fill-opacity="1"><g transform="translate(232.3488, 80.164258)"><g><path d="M 2.609375 -22.0625 L 7.71875 -22.0625 L 7.71875 -4.15625 L 18.78125 -4.15625 L 18.78125 0 L 2.609375 0 Z M 2.609375 -22.0625 "/></g></g></g><g fill="#ffffff" fill-opacity="1"><g transform="translate(253.26707, 80.164258)"><g><path d="M 2.609375 -22.0625 L 7.71875 -22.0625 L 7.71875 0 L 2.609375 0 Z M 2.609375 -22.0625 "/></g></g></g><g fill="#ffffff" fill-opacity="1"><g transform="translate(265.49079, 80.164258)"><g><path d="M 7.71875 -17.96875 L 7.71875 -12.140625 L 17.9375 -12.140625 L 17.9375 -8.03125 L 7.71875 -8.03125 L 7.71875 0 L 2.609375 0 L 2.609375 -22.0625 L 19.28125 -22.0625 L 19.28125 -17.96875 Z M 7.71875 -17.96875 "/></g></g></g><g fill="#ffffff" fill-opacity="1"><g transform="translate(287.511627, 80.164258)"><g><path d="M 19.703125 -4.09375 L 19.703125 0 L 2.609375 0 L 2.609375 -22.0625 L 19.28125 -22.0625 L 19.28125 -17.96875 L 7.6875 -17.96875 L 7.6875 -13.171875 L 17.9375 -13.171875 L 17.9375 -9.203125 L 7.6875 -9.203125 L 7.6875 -4.09375 Z M 19.703125 -4.09375 "/></g></g></g><g fill="#ffffff" fill-opacity="1"><g transform="translate(165.938811, 95.938137)"><g><path d="M 5.984375 -6 L 5.984375 0 L 5.359375 0 L 5.359375 -2.765625 L 1.609375 -2.765625 L 1.609375 0 L 0.96875 0 L 0.96875 -6 L 1.609375 -6 L 1.609375 -3.328125 L 5.359375 -3.328125 L 5.359375 -6 Z M 5.984375 -6 "/></g></g></g><g fill="#ffffff" fill-opacity="1"><g transform="translate(178.351311, 95.938137)"><g><path d="M 5.21875 -0.546875 L 5.21875 0 L 0.96875 0 L 0.96875 -6 L 5.09375 -6 L 5.09375 -5.453125 L 1.609375 -5.453125 L 1.609375 -3.3125 L 4.703125 -3.3125 L 4.703125 -2.78125 L 1.609375 -2.78125 L 1.609375 -0.546875 Z M 5.21875 -0.546875 "/></g></g></g><g fill="#ffffff" fill-opacity="1"><g transform="translate(189.531117, 95.938137)"><g><path d="M 4.734375 -1.59375 L 1.390625 -1.59375 L 0.671875 0 L 0.015625 0 L 2.75 -6 L 3.375 -6 L 6.125 0 L 5.453125 0 Z M 4.5 -2.109375 L 3.0625 -5.328125 L 1.625 -2.109375 Z M 4.5 -2.109375 "/></g></g></g><g fill="#ffffff" fill-opacity="1"><g transform="translate(201.121822, 95.938137)"><g><path d="M 0.96875 -6 L 1.609375 -6 L 1.609375 -0.546875 L 4.96875 -0.546875 L 4.96875 0 L 0.96875 0 Z M 0.96875 -6 "/></g></g></g><g fill="#ffffff" fill-opacity="1"><g transform="translate(211.616799, 95.938137)"><g><path d="M 2.140625 -5.453125 L 0.03125 -5.453125 L 0.03125 -6 L 4.875 -6 L 4.875 -5.453125 L 2.78125 -5.453125 L 2.78125 0 L 2.140625 0 Z M 2.140625 -5.453125 "/></g></g></g><g fill="#ffffff" fill-opacity="1"><g transform="translate(221.983363, 95.938137)"><g><path d="M 5.984375 -6 L 5.984375 0 L 5.359375 0 L 5.359375 -2.765625 L 1.609375 -2.765625 L 1.609375 0 L 0.96875 0 L 0.96875 -6 L 1.609375 -6 L 1.609375 -3.328125 L 5.359375 -3.328125 L 5.359375 -6 Z M 5.984375 -6 "/></g></g></g><g fill="#ffffff" fill-opacity="1"><g transform="translate(234.39586, 95.938137)"><g><path d="M 3.03125 -2.078125 L 3.03125 0 L 2.40625 0 L 2.40625 -2.078125 L 0.015625 -6 L 0.6875 -6 L 2.734375 -2.625 L 4.796875 -6 L 5.421875 -6 Z M 3.03125 -2.078125 "/></g></g></g><g fill="#ffffff" fill-opacity="1"><g transform="translate(245.28461, 95.938137)"><g/></g></g><g fill="#ffffff" fill-opacity="1"><g transform="translate(252.980345, 95.938137)"><g><path d="M 9.203125 -6 L 7.1875 0 L 6.515625 0 L 4.765625 -5.109375 L 3 0 L 2.34375 0 L 0.3125 -6 L 0.96875 -6 L 2.703125 -0.84375 L 4.484375 -6 L 5.078125 -6 L 6.84375 -0.8125 L 8.59375 -6 Z M 9.203125 -6 "/></g></g></g><g fill="#ffffff" fill-opacity="1"><g transform="translate(267.943827, 95.938137)"><g><path d="M 3.59375 0.046875 C 3 0.046875 2.460938 -0.0820312 1.984375 -0.34375 C 1.503906 -0.613281 1.125 -0.976562 0.84375 -1.4375 C 0.570312 -1.894531 0.4375 -2.414062 0.4375 -3 C 0.4375 -3.570312 0.570312 -4.085938 0.84375 -4.546875 C 1.125 -5.015625 1.503906 -5.378906 1.984375 -5.640625 C 2.460938 -5.910156 3 -6.046875 3.59375 -6.046875 C 4.1875 -6.046875 4.722656 -5.910156 5.203125 -5.640625 C 5.679688 -5.378906 6.054688 -5.015625 6.328125 -4.546875 C 6.597656 -4.085938 6.734375 -3.570312 6.734375 -3 C 6.734375 -2.414062 6.597656 -1.890625 6.328125 -1.421875 C 6.054688 -0.960938 5.679688 -0.601562 5.203125 -0.34375 C 4.722656 -0.0820312 4.1875 0.046875 3.59375 0.046875 Z M 3.59375 -0.515625 C 4.070312 -0.515625 4.5 -0.617188 4.875 -0.828125 C 5.257812 -1.046875 5.5625 -1.34375 5.78125 -1.71875 C 6 -2.101562 6.109375 -2.53125 6.109375 -3 C 6.109375 -3.46875 6 -3.890625 5.78125 -4.265625 C 5.5625 -4.648438 5.257812 -4.945312 4.875 -5.15625 C 4.5 -5.375 4.070312 -5.484375 3.59375 -5.484375 C 3.125 -5.484375 2.695312 -5.375 2.3125 -5.15625 C 1.925781 -4.945312 1.625 -4.648438 1.40625 -4.265625 C 1.1875 -3.890625 1.078125 -3.46875 1.078125 -3 C 1.078125 -2.53125 1.1875 -2.101562 1.40625 -1.71875 C 1.625 -1.34375 1.925781 -1.046875 2.3125 -0.828125 C 2.695312 -0.617188 3.125 -0.515625 3.59375 -0.515625 Z M 3.59375 -0.515625 "/></g></g></g><g fill="#ffffff" fill-opacity="1"><g transform="translate(280.578889, 95.938137)"><g><path d="M 5.0625 0 L 3.703125 -1.921875 C 3.546875 -1.910156 3.382812 -1.90625 3.21875 -1.90625 L 1.609375 -1.90625 L 1.609375 0 L 0.96875 0 L 0.96875 -6 L 3.21875 -6 C 3.976562 -6 4.578125 -5.8125 5.015625 -5.4375 C 5.453125 -5.070312 5.671875 -4.570312 5.671875 -3.9375 C 5.671875 -3.46875 5.550781 -3.070312 5.3125 -2.75 C 5.070312 -2.425781 4.734375 -2.195312 4.296875 -2.0625 L 5.765625 0 Z M 3.203125 -2.4375 C 3.796875 -2.4375 4.25 -2.566406 4.5625 -2.828125 C 4.875 -3.097656 5.03125 -3.46875 5.03125 -3.9375 C 5.03125 -4.425781 4.875 -4.800781 4.5625 -5.0625 C 4.25 -5.320312 3.796875 -5.453125 3.203125 -5.453125 L 1.609375 -5.453125 L 1.609375 -2.4375 Z M 3.203125 -2.4375 "/></g></g></g><g fill="#ffffff" fill-opacity="1"><g transform="translate(292.220946, 95.938137)"><g><path d="M 2.828125 -2.8125 L 1.609375 -1.578125 L 1.609375 0 L 0.96875 0 L 0.96875 -6 L 1.609375 -6 L 1.609375 -2.375 L 5.125 -6 L 5.859375 -6 L 3.265625 -3.28125 L 6.03125 0 L 5.28125 0 Z M 2.828125 -2.8125 "/></g></g></g><g fill="#ffffff" fill-opacity="1"><g transform="translate(303.760282, 95.938137)"><g><path d="M 3.59375 0.046875 C 3 0.046875 2.460938 -0.0820312 1.984375 -0.34375 C 1.503906 -0.613281 1.125 -0.976562 0.84375 -1.4375 C 0.570312 -1.894531 0.4375 -2.414062 0.4375 -3 C 0.4375 -3.570312 0.570312 -4.085938 0.84375 -4.546875 C 1.125 -5.015625 1.503906 -5.378906 1.984375 -5.640625 C 2.460938 -5.910156 3 -6.046875 3.59375 -6.046875 C 4.1875 -6.046875 4.722656 -5.910156 5.203125 -5.640625 C 5.679688 -5.378906 6.054688 -5.015625 6.328125 -4.546875 C 6.597656 -4.085938 6.734375 -3.570312 6.734375 -3 C 6.734375 -2.414062 6.597656 -1.890625 6.328125 -1.421875 C 6.054688 -0.960938 5.679688 -0.601562 5.203125 -0.34375 C 4.722656 -0.0820312 4.1875 0.046875 3.59375 0.046875 Z M 3.59375 -0.515625 C 4.070312 -0.515625 4.5 -0.617188 4.875 -0.828125 C 5.257812 -1.046875 5.5625 -1.34375 5.78125 -1.71875 C 6 -2.101562 6.109375 -2.53125 6.109375 -3 C 6.109375 -3.46875 6 -3.890625 5.78125 -4.265625 C 5.5625 -4.648438 5.257812 -4.945312 4.875 -5.15625 C 4.5 -5.375 4.070312 -5.484375 3.59375 -5.484375 C 3.125 -5.484375 2.695312 -5.375 2.3125 -5.15625 C 1.925781 -4.945312 1.625 -4.648438 1.40625 -4.265625 C 1.1875 -3.890625 1.078125 -3.46875 1.078125 -3 C 1.078125 -2.53125 1.1875 -2.101562 1.40625 -1.71875 C 1.625 -1.34375 1.925781 -1.046875 2.3125 -0.828125 C 2.695312 -0.617188 3.125 -0.515625 3.59375 -0.515625 Z M 3.59375 -0.515625 "/></g></g></g><g fill="#ffffff" fill-opacity="1"><g transform="translate(316.395344, 95.938137)"><g><path d="M 3.390625 0.046875 C 2.609375 0.046875 2 -0.171875 1.5625 -0.609375 C 1.132812 -1.054688 0.921875 -1.707031 0.921875 -2.5625 L 0.921875 -6 L 1.5625 -6 L 1.5625 -2.578125 C 1.5625 -1.890625 1.71875 -1.375 2.03125 -1.03125 C 2.34375 -0.6875 2.796875 -0.515625 3.390625 -0.515625 C 3.992188 -0.515625 4.453125 -0.6875 4.765625 -1.03125 C 5.078125 -1.375 5.234375 -1.890625 5.234375 -2.578125 L 5.234375 -6 L 5.84375 -6 L 5.84375 -2.5625 C 5.84375 -1.707031 5.628906 -1.054688 5.203125 -0.609375 C 4.773438 -0.171875 4.171875 0.046875 3.390625 0.046875 Z M 3.390625 0.046875 "/></g></g></g><g fill="#ffffff" fill-opacity="1"><g transform="translate(328.628075, 95.938137)"><g><path d="M 2.140625 -5.453125 L 0.03125 -5.453125 L 0.03125 -6 L 4.875 -6 L 4.875 -5.453125 L 2.78125 -5.453125 L 2.78125 0 L 2.140625 0 Z M 2.140625 -5.453125 "/></g></g></g></svg>